<svg xmlns="http://www.w3.org/2000/svg" viewBox="0 0 128 128" style="enable-background:new 0 0 128 128" xml:space="preserve"><path style="fill:#65a760" d="M28.252 60.519H15.403V49.953h12.849v10.566zm21.085-10.566H36.491v10.566h12.846V49.953zm21.088 0H57.576v10.566h12.849V49.953zm21.085 0H78.664v10.566H91.51V49.953zm21.087 0H99.749v10.566h12.849V49.953zM28.252 65.781H15.403v10.566h12.849V65.781zm21.085 0H36.491v10.566h12.846V65.781zm21.088 0H57.576v10.566h12.849V65.781zm21.085 0H78.664v10.566H91.51V65.781zm21.087 0H99.749v10.566h12.849V65.781zM28.252 81.606H15.403v10.566h12.849V81.606zm21.085 0H36.491v10.566h12.846V81.606zm21.088 0H57.576v10.566h12.849V81.606zm21.085 0H78.664v10.566H91.51V81.606z"/><path style="fill:#44566b" d="M101.622 23.783v-4.099a3.963 3.963 0 0 0-3.962-3.962 3.963 3.963 0 0 0-3.962 3.962v4.099H68.233v-4.099a3.963 3.963 0 0 0-3.962-3.962 3.963 3.963 0 0 0-3.962 3.962v4.099H34.303v-4.099a3.963 3.963 0 0 0-3.962-3.962 3.963 3.963 0 0 0-3.962 3.962v4.099H0v88.496h128V23.783h-26.378zm21.391 83.509H4.987V28.77h21.391v3.807a3.963 3.963 0 0 0 3.962 3.962 3.963 3.963 0 0 0 3.962-3.962V28.77h26.006v3.807a3.963 3.963 0 0 0 3.962 3.962 3.963 3.963 0 0 0 3.962-3.962V28.77h25.465v3.807a3.963 3.963 0 0 0 3.962 3.962 3.963 3.963 0 0 0 3.962-3.962V28.77h21.391v78.522z"/></svg>